/* XPM */
static char *Big_Pill[] = {
/* columns rows colors chars-per-pixel */
"80 40 2 1 ",
"  c #CBDBFC",
". c None",
/* pixels */
"................................................................................",
"................................................................................",
"................................................................................",
"................................................................................",
"................................................................................",
"................................................................................",
"................................................................................",
"................................................................................",
"................................................................................",
"................................................................................",
"................................................................................",
"................................................................................",
"................................................................................",
"................................................................................",
".................      .........................................................",
"...............          .......................................................",
"...............          .......................................................",
"..............            ......................................................",
"..............            ......................................................",
"..............            ......................................................",
"..............            ......................................................",
"..............            ......................................................",
"..............            ......................................................",
"...............          .......................................................",
"...............          .......................................................",
".................      .........................................................",
"................................................................................",
"................................................................................",
"................................................................................",
"................................................................................",
"................................................................................",
"................................................................................",
"................................................................................",
"................................................................................",
"................................................................................",
"................................................................................",
"................................................................................",
"................................................................................",
"................................................................................",
"................................................................................"
};
