/* XPM */
static char *Blinking_Terrified_Ghost[] = {
/* columns rows colors chars-per-pixel */
"160 40 3 1 ",
"  c #5B6EE1",
". c gray100",
"X c None",
/* pixels */
"XXXXXXXXXXXXXXX          XXXXXXXXXXXXXXXXXXXXXXXXXXXXXX          XXXXXXXXXXXXXXXXXXXXXXXXXXXXXX..........XXXXXXXXXXXXXXXXXXXXXXXXXXXXXX..........XXXXXXXXXXXXXXX",
"XXXXXXXXXXXX                XXXXXXXXXXXXXXXXXXXXXXXX                XXXXXXXXXXXXXXXXXXXXXXXX................XXXXXXXXXXXXXXXXXXXXXXXX................XXXXXXXXXXXX",
"XXXXXXXXXX                    XXXXXXXXXXXXXXXXXXXX                    XXXXXXXXXXXXXXXXXXXX....................XXXXXXXXXXXXXXXXXXXX....................XXXXXXXXXX",
"XXXXXXXXX                      XXXXXXXXXXXXXXXXXX                      XXXXXXXXXXXXXXXXXX......................XXXXXXXXXXXXXXXXXX......................XXXXXXXXX",
"XXXXXXX                          XXXXXXXXXXXXXX                          XXXXXXXXXXXXXX..........................XXXXXXXXXXXXXX..........................XXXXXXX",
"XXXXXX                            XXXXXXXXXXXX                            XXXXXXXXXXXX............................XXXXXXXXXXXX............................XXXXXX",
"XXXXX                              XXXXXXXXXX                              XXXXXXXXXX..............................XXXXXXXXXX..............................XXXXX",
"XXXX                                XXXXXXXX                                XXXXXXXX................................XXXXXXXX................................XXXX",
"XXXX                                XXXXXXXX                                XXXXXXXX................................XXXXXXXX................................XXXX",
"XXX                                  XXXXXX                                  XXXXXX..................................XXXXXX..................................XXX",
"XX        ....            ....        XXXX        ....            ....        XXXX........    ............    ........XXXX........    ............    ........XX",
"XX       ......          ......       XXXX       ......          ......       XXXX.......      ..........      .......XXXX.......      ..........      .......XX",
"X       ........        ........       XX       ........        ........       XX.......        ........        .......XX.......        ........        .......X",
"X       ........        ........       XX       ........        ........       XX.......        ........        .......XX.......        ........        .......X",
"X       ........        ........       XX       ........        ........       XX.......        ........        .......XX.......        ........        .......X",
"        ........        ........                ........        ........        ........        ........        ................        ........        ........",
"         ......          ......                  ......          ......         .........      ..........      ..................      ..........      .........",
"          ....            ....                    ....            ....          ..........    ............    ....................    ............    ..........",
"                                                                                ................................................................................",
"                                                                                ................................................................................",
"                                                                                ................................................................................",
"                                                                                ................................................................................",
"          .     .      .     .                    .     .      .     .          .......... ..... ...... ..... .................... ..... ...... ..... ..........",
"         ...   ...    ...   ...                  ...   ...    ...   ...         .........   ...   ....   ...   ..................   ...   ....   ...   .........",
"        .. .. .. ..  .. .. .. ..                .. .. .. ..  .. .. .. ..        ........  .  .  .  ..  .  .  .  ................  .  .  .  ..  .  .  .  ........",
"       ..   ...   ....   ...   ..              ..   ...   ....   ...   ..       .......  ...   ...    ...   ...  ..............  ...   ...    ...   ...  .......",
"       .     .     ..     .     .              .     .     ..     .     .       ....... ..... .....  ..... ..... .............. ..... .....  ..... ..... .......",
"                                                                                ................................................................................",
"                                                                                ................................................................................",
"                                                                                ................................................................................",
"                                                                                ................................................................................",
"                                                                                ................................................................................",
"          XXX              XXX                            XXXX                  ..........XXX..............XXX............................XXXX..................",
"         XXXXX            XXXXX                 X        XXXXXX        X        .........XXXXX............XXXXX.................X........XXXXXX........X........",
"X       XXXXXXX          XXXXXXX       X       XX       XXXXXXXX       XX       X.......XXXXXXX..........XXXXXXX.......X.......XX.......XXXXXXXX.......XX.......",
"X       XXXXXXX          XXXXXXX       X      XXX       XXXXXXXX       XXX      X.......XXXXXXX..........XXXXXXX.......X......XXX.......XXXXXXXX.......XXX......",
"X      XXXXXXXXX        XXXXXXXXX      X     XXXX      XXXXXXXXXX      XXXX     X......XXXXXXXXX........XXXXXXXXX......X.....XXXX......XXXXXXXXXX......XXXX.....",
"XX    XXXXXXXXXXX      XXXXXXXXXXX    XX    XXXXX     XXXXXXXXXXXX     XXXXX    XX....XXXXXXXXXXX......XXXXXXXXXXX....XX....XXXXX.....XXXXXXXXXXXX.....XXXXX....",
"XX    XXXXXXXXXXX      XXXXXXXXXXX    XX   XXXXXX    XXXXXXXXXXXXXX    XXXXXX   XX....XXXXXXXXXXX......XXXXXXXXXXX....XX...XXXXXX....XXXXXXXXXXXXXX....XXXXXX...",
"XXX  XXXXXXXXXXXXX    XXXXXXXXXXXXX  XXX  XXXXXXXX  XXXXXXXXXXXXXXXX  XXXXXXXX  XXX..XXXXXXXXXXXXX....XXXXXXXXXXXXX..XXX..XXXXXXXX..XXXXXXXXXXXXXXXX..XXXXXXXX.."
};
