/* XPM */
static char *Pacman_Death[] = {
/* columns rows colors chars-per-pixel */
"440 40 2 1 ",
"  c #FBF236",
". c None",
/* pixels */
"...............          ............................. ........... .....................................................................................................................................................................................................................................................................................................................................................................................",
"............                ........................   ...........  ....................................................................................................................................................................................................................................................................................................................................................................................",
"..........                    ....................      .........     ..................................................................................................................................................................................................................................................................................................................................................................................",
".........                      ..................       .........      .................................................................................................................................................................................................................................................................................................................................................................................",
".......                          ..............         .........        ...............................................................................................................................................................................................................................................................................................................................................................................",
"......                            ............           ........         ........... ............................ .....................................................................................................................................................................................................................................................................................................................................",
".....                              ..........            .......           ..........  ..........................  .....................................................................................................................................................................................................................................................................................................................................",
"....                                ........             .......            ........    ........................    ....................................................................................................................................................................................................................................................................................................................................",
"....                                ........              ......            ........     ......................     ....................................................................................................................................................................................................................................................................................................................................",
"...                                  ......               ......             ......       ....................       ...................................................................................................................................................................................................................................................................................................................................",
"..                                    ....                .....               ....         ..................         ..................................................................................................................................................................................................................................................................................................................................",
"..                                    ....                .....               ....          ................          ..................................................................................................................................................................................................................................................................................................................................",
".                                      ..                  ....                ..            ..............            .................................................................................................................................................................................................................................................................................................................................",
".                                      ..                  ....                ..             ............             .................................................................................................................................................................................................................................................................................................................................",
".                                      ..                  ...                 ..              ..........              .................................................................................................................................................................................................................................................................................................................................",
"                                                            ..                                  ........                  ...................................   ........................................................................................................................................................................................................................................................................................",
"                                                            ..                                   ......                        .........................        ........................................................................................................................................................................................................................  ....  ........................................................",
"                                                            ..                                    ....                              ................            .................................................................................................................................................................................  ..  .................................  ....  ........................................................",
"                                                                                                   ..                                    ......                 .................................................................................................................................................................................  ..  .................................................................................................",
"                                                                                                                                                                ..................    .....................................  ......................................  ......................................  ...........................................................................................................................................",
"                                                                                                                                                                ..............            ................................    .....................................  ......................................  ...........................................................................................................................................",
"                                                                                                                                                                ..........                    ...........................      ...................................    ...........................................................................  ..  .................................................................................................",
"                                                                                                                                                                ......                            ......................        ..................................    ...........................................................................  ..  .................................  ....  ........................................................",
"                                                                                                                                                                ..                                    .................          .................................    ..................................................................................................................  ....  ........................................................",
"                                                                                                                                                                                                        ..............            ................................    ..................................................................................................................................................................................",
".                                      ..                                      ..                                      ..                                      ..                                      ..............              ..............................      .................................................................................................................................................................................",
".                                      ..                                      ..                                      ..                                      ..                                      .............                .............................      .................................................................................................................................................................................",
".                                      ..                                      ..                                      ..                                      ..                                      ............                  ............................      .................................................................................................................................................................................",
"..                                    ....                                    ....                                    ....                                    ....                                    ............                    ...........................      .................................................................................................................................................................................",
"..                                    ....                                    ....                                    ....                                    ....                                    ...........                      .........................        ................................................................................................................................................................................",
"...                                  ......                                  ......                                  ......                                  ......                                  ...........                        ........................        ................................................................................................................................................................................",
"....                                ........                                ........                                ........                                ........                                ...........                          .......................        ................................................................................................................................................................................",
"....                                ........                                ........                                ........                                ........                                ..........                            ......................        ................................................................................................................................................................................",
".....                              ..........                              ..........                              ..........                              ..........                              ..........                              ....................          ...............................................................................................................................................................................",
"......                            ............                            ............                            ............                            ............                            ............                            .....................          ...............................................................................................................................................................................",
".......                          ..............                          ..............                          ..............                          ..............                          ..............                          ......................          ...............................................................................................................................................................................",
".........                      ..................                      ..................                      ..................                      ..................                      ..................                      ........................          ...............................................................................................................................................................................",
"..........                    ....................                    ....................                    ....................                    ....................                    ....................                    ........................            ..............................................................................................................................................................................",
"............                ........................                ........................                ........................                ........................                ........................                ..........................            ..............................................................................................................................................................................",
"...............          ..............................          ..............................          ..............................          ..............................          ..............................          ..............................          ..............................................................................................................................................................................."
};
