/* XPM */
static char *Pacman_Chomping_Down[] = {
/* columns rows colors chars-per-pixel */
"160 40 2 1 ",
"  c #FBF236",
". c None",
/* pixels */
"...............          ..............................          ..............................          ..............................          ...............",
"............                ........................                ........................                ........................                ............",
"..........                    ....................                    ....................                    ....................                    ..........",
".........                      ..................                      ..................                      ..................                      .........",
".......                          ..............                          ..............                          ..............                          .......",
"......                            ............                            ............                            ............                            ......",
".....                              ..........                              ..........                              ..........                              .....",
"....                                ........                                ........                                ........                                ....",
"....                                ........                                ........                                ........                                ....",
"...                                  ......                                  ......                                  ......                                  ...",
"..                                    ....                                    ....                                    ....                                    ..",
"..                                    ....                                    ....                                    ....                                    ..",
".                                      ..                                      ..                                      ..                                      .",
".                                      ..                                      ..                                      ..                                      .",
".                                      ..                                      ..                                      ..                                      .",
"                                                                                                                                                                ",
"                                                                                                                                                                ",
"                                                                                                                                                                ",
"                                                                                                                                                                ",
"                                                                                                                                                                ",
"                                                                                                                                                                ",
"                                                                                                   ..                                                           ",
"                                                          ..                                      ....                                    ..                    ",
"                                                          ..                                     ......                                   ..                    ",
"                                                          ..                                    ........                                  ..                    ",
".                                      ..                 ...                  ..              ..........              ..                 ...                  .",
".                                      ..                ....                  ..             ............             ..                ....                  .",
".                                      ..                ....                  ..            ..............            ..                ....                  .",
"..                                    ....               .....                ....          ................          ....               .....                ..",
"..                                    ....               .....                ....         ..................         ....               .....                ..",
"...                                  ......             ......               ......       ....................       ......             ......               ...",
"....                                ........            ......              ........     ......................     ........            ......              ....",
"....                                ........            .......             ........    ........................    ........            .......             ....",
".....                              ..........           .......            ..........  ..........................  ..........           .......            .....",
"......                            ............         ........           ........... ............................ ...........         ........           ......",
".......                          ..............        .........         ......................................................        .........         .......",
".........                      ..................      .........       ..........................................................      .........       .........",
"..........                    ....................     .........      ............................................................     .........      ..........",
"............                ........................  ...........   ................................................................  ...........   ............",
"...............          ........................................ ............................................................................... .............."
};
