/* XPM */
static char *Terrified_Ghost[] = {
/* columns rows colors chars-per-pixel */
"80 40 3 1 ",
"  c #5B6EE1",
". c gray100",
"X c None",
/* pixels */
"XXXXXXXXXXXXXXX          XXXXXXXXXXXXXXXXXXXXXXXXXXXXXX          XXXXXXXXXXXXXXX",
"XXXXXXXXXXXX                XXXXXXXXXXXXXXXXXXXXXXXX                XXXXXXXXXXXX",
"XXXXXXXXXX                    XXXXXXXXXXXXXXXXXXXX                    XXXXXXXXXX",
"XXXXXXXXX                      XXXXXXXXXXXXXXXXXX                      XXXXXXXXX",
"XXXXXXX                          XXXXXXXXXXXXXX                          XXXXXXX",
"XXXXXX                            XXXXXXXXXXXX                            XXXXXX",
"XXXXX                              XXXXXXXXXX                              XXXXX",
"XXXX                                XXXXXXXX                                XXXX",
"XXXX                                XXXXXXXX                                XXXX",
"XXX                                  XXXXXX                                  XXX",
"XX        ....            ....        XXXX        ....            ....        XX",
"XX       ......          ......       XXXX       ......          ......       XX",
"X       ........        ........       XX       ........        ........       X",
"X       ........        ........       XX       ........        ........       X",
"X       ........        ........       XX       ........        ........       X",
"        ........        ........                ........        ........        ",
"         ......          ......                  ......          ......         ",
"          ....            ....                    ....            ....          ",
"                                                                                ",
"                                                                                ",
"                                                                                ",
"                                                                                ",
"          .     .      .     .                    .     .      .     .          ",
"         ...   ...    ...   ...                  ...   ...    ...   ...         ",
"        .. .. .. ..  .. .. .. ..                .. .. .. ..  .. .. .. ..        ",
"       ..   ...   ....   ...   ..              ..   ...   ....   ...   ..       ",
"       .     .     ..     .     .              .     .     ..     .     .       ",
"                                                                                ",
"                                                                                ",
"                                                                                ",
"                                                                                ",
"                                                                                ",
"          XXX              XXX                            XXXX                  ",
"         XXXXX            XXXXX                 X        XXXXXX        X        ",
"X       XXXXXXX          XXXXXXX       X       XX       XXXXXXXX       XX       ",
"X       XXXXXXX          XXXXXXX       X      XXX       XXXXXXXX       XXX      ",
"X      XXXXXXXXX        XXXXXXXXX      X     XXXX      XXXXXXXXXX      XXXX     ",
"XX    XXXXXXXXXXX      XXXXXXXXXXX    XX    XXXXX     XXXXXXXXXXXX     XXXXX    ",
"XX    XXXXXXXXXXX      XXXXXXXXXXX    XX   XXXXXX    XXXXXXXXXXXXXX    XXXXXX   ",
"XXX  XXXXXXXXXXXXX    XXXXXXXXXXXXX  XXX  XXXXXXXX  XXXXXXXXXXXXXXXX  XXXXXXXX  "
};
